<?xml version="1.0" encoding="utf-8"?>
<!-- Generator: Adobe Illustrator 21.1.0, SVG Export Plug-In . SVG Version: 6.00 Build 0)  -->
<svg version="1.1" id="Layer_1" xmlns="http://www.w3.org/2000/svg" xmlns:xlink="http://www.w3.org/1999/xlink" x="0px" y="0px"
	 viewBox="0 0 608 284" style="enable-background:new 0 0 608 284;" xml:space="preserve">
<style type="text/css">
	.st0{fill:none;stroke:#FF0000;stroke-width:0.2835;stroke-miterlimit:10;}
</style>
<g id="base">
	<line class="st0" x1="11.3" y1="199.5" x2="11.3" y2="253.8"/>
	<g>
		<path class="st0" d="M11.3,253.8v13.3c0,5.5,4.5,9.9,9.9,9.9h481.7c5.5,0,9.9-4.5,9.9-9.9v-80.7c0-5.5-4.5-9.9-9.9-9.9h-27
			c-5.5,0-9.9-3.8-9.9-8.4c0-4.6,4.5-8.4,9.9-8.4h69c5.5,0,9.9-4.5,9.9-9.9v-36.2c0-5.5,4.5-9.9,9.9-9.9H587c5.5,0,9.9-4.5,9.9-9.9
			V21.3c0-5.5-4.5-9.9-9.9-9.9H21c-5.5,0-9.9,4.5-9.9,9.9l0.2,73c0,5.5,3.6,9.9,8,9.9s8,4.5,8,9.9v34.1c0,5.5,4.5,9.9,9.9,9.9h11.1
			c5.5,0,9.9,4.1,9.9,9s-4.5,9-9.9,9H21.2c-5.5,0-9.9,4.5-9.9,9.9v13.4"/>
	</g>
</g>
<g id="m3_holes">
	<circle class="st0" cx="210.7" cy="24.2" r="4.3"/>
	<circle class="st0" cx="24.1" cy="24.2" r="4.3"/>
	<circle class="st0" cx="397.3" cy="24.2" r="4.3"/>
	<circle class="st0" cx="583.9" cy="24.2" r="4.3"/>
	<circle class="st0" cx="24.1" cy="90.9" r="4.3"/>
	<circle class="st0" cx="24.1" cy="188.9" r="4.3"/>
	<circle class="st0" cx="24.1" cy="264.3" r="4.3"/>
	<circle class="st0" cx="500.5" cy="264" r="4.3"/>
	<circle class="st0" cx="260.2" cy="265" r="4.3"/>
	<circle class="st0" cx="541.6" cy="145.2" r="4.3"/>
	<circle class="st0" cx="583.9" cy="90.9" r="4.3"/>
	<circle class="st0" cx="500.5" cy="188.9" r="4.3"/>
</g>
</svg>
