<?xml version="1.0" encoding="utf-8"?>
<!-- Generator: Adobe Illustrator 21.1.0, SVG Export Plug-In . SVG Version: 6.00 Build 0)  -->
<svg version="1.1" id="Layer_1" xmlns="http://www.w3.org/2000/svg" xmlns:xlink="http://www.w3.org/1999/xlink" x="0px" y="0px"
	 viewBox="0 0 608 284" style="enable-background:new 0 0 608 284;" xml:space="preserve">
<style type="text/css">
	.st0{fill:none;stroke:#FF0000;stroke-width:0.2835;}
	.st1{fill:none;stroke:#FF0000;stroke-width:0.2835;stroke-miterlimit:10;}
</style>
<g id="base">
	<polyline class="st0" points="11.3,253.8 155.5,253.8 475.6,253.8 475.6,250.7 475.6,193.1 475.6,188.9 445.4,188.9 445.4,188.9 
		445.4,134.9 527.2,134.9 527.2,80.9 566.9,80.9 566.9,41.2 41.2,41.2 41.2,80.9 54.7,80.9 54.7,134.9 81.7,134.9 81.7,199.5 
		11.3,199.5 	"/>
	<g>
		<path class="st1" d="M11.3,253.8v13.3c0,5.5,4.5,9.9,9.9,9.9h481.7c5.5,0,9.9-4.5,9.9-9.9v-80.7c0-5.5-4.5-9.9-9.9-9.9h-27
			c-5.5,0-9.9-3.8-9.9-8.4c0-4.6,4.5-8.4,9.9-8.4h69c5.5,0,9.9-4.5,9.9-9.9v-36.2c0-5.5,4.5-9.9,9.9-9.9H587c5.5,0,9.9-4.5,9.9-9.9
			V21.3c0-5.5-4.5-9.9-9.9-9.9H21c-5.5,0-9.9,4.5-9.9,9.9l0.2,73c0,5.5,3.6,9.9,8,9.9s8,4.5,8,9.9v34.1c0,5.5,4.5,9.9,9.9,9.9h11.1
			c5.5,0,9.9,4.1,9.9,9s-4.5,9-9.9,9H21.2c-5.5,0-9.9,4.5-9.9,9.9v13.4"/>
	</g>
</g>
<g id="hexes">
	<polygon class="st1" points="214.5,17.5 206.8,17.5 203.1,24.2 206.8,30.9 214.5,30.9 218.4,24.2 	"/>
	<polygon class="st1" points="401.3,17.6 393.6,17.6 389.9,24.2 393.6,30.9 401.3,30.9 405.2,24.2 	"/>
	<polygon class="st1" points="264,258.4 256.3,258.4 252.6,265 256.3,271.7 264,271.7 267.9,265 	"/>
	<polygon class="st1" points="27.9,182.2 20.2,182.2 16.4,188.9 20.2,195.6 27.9,195.6 31.7,188.9 	"/>
	<polygon class="st1" points="27.9,257.7 20.2,257.7 16.4,264.3 20.2,271 27.9,271 31.7,264.3 	"/>
	<polygon class="st1" points="504.3,182.2 496.6,182.2 492.9,188.9 496.6,195.5 504.3,195.5 508.2,188.9 	"/>
	<polygon class="st1" points="504.3,257.4 496.6,257.4 492.9,264 496.6,270.7 504.3,270.7 508.2,264 	"/>
	<polygon class="st1" points="27.9,84.2 20.3,84.2 16.5,90.9 20.3,97.6 27.9,97.6 31.8,90.9 	"/>
	<polygon class="st1" points="27.9,17.6 20.2,17.6 16.4,24.2 20.2,30.9 27.9,30.9 31.7,24.2 	"/>
	<polygon class="st1" points="587.7,17.5 580.1,17.5 576.3,24.2 580.1,30.9 587.7,30.9 591.6,24.2 	"/>
	<polygon class="st1" points="587.7,84.3 580.1,84.3 576.3,90.9 580.1,97.6 587.7,97.6 591.6,90.9 	"/>
	<polygon class="st1" points="545.3,138.7 537.7,138.7 533.9,145.4 537.7,152 545.3,152 549.2,145.4 	"/>
</g>
</svg>
