<?xml version="1.0" encoding="utf-8"?>
<!-- Generator: Adobe Illustrator 21.1.0, SVG Export Plug-In . SVG Version: 6.00 Build 0)  -->
<svg version="1.1" id="Layer_1" xmlns="http://www.w3.org/2000/svg" xmlns:xlink="http://www.w3.org/1999/xlink" x="0px" y="0px"
	 viewBox="0 0 608 284" style="enable-background:new 0 0 608 284;" xml:space="preserve">
<style type="text/css">
	.st0{fill:none;stroke:#FF0000;stroke-width:0.2835;stroke-miterlimit:10;}
	.st1{fill:none;stroke:#FF0000;stroke-width:0.2835;}
</style>
<g id="base">
	<g>
		<path class="st0" d="M11.3,253.8v13.3c0,5.5,4.5,9.9,9.9,9.9h481.7c5.5,0,9.9-4.5,9.9-9.9v-80.7c0-5.5-4.5-9.9-9.9-9.9h-27
			c-5.5,0-9.9-3.8-9.9-8.4c0-4.6,4.5-8.4,9.9-8.4h69c5.5,0,9.9-4.5,9.9-9.9v-36.2c0-5.5,4.5-9.9,9.9-9.9H587c5.5,0,9.9-4.5,9.9-9.9
			V21.3c0-5.5-4.5-9.9-9.9-9.9H21c-5.5,0-9.9,4.5-9.9,9.9l0.2,73c0,5.5,3.6,9.9,8,9.9s8,4.5,8,9.9v34.1c0,5.5,4.5,9.9,9.9,9.9h11.1
			c5.5,0,9.9,4.1,9.9,9s-4.5,9-9.9,9H21.2c-5.5,0-9.9,4.5-9.9,9.9v13.4"/>
	</g>
	<polyline class="st0" points="11.3,253.8 106.5,253.8 106.5,199.4 11.3,199.4 	"/>
</g>
<g id="m3_holes">
	<circle class="st0" cx="210.7" cy="24.2" r="4.3"/>
	<circle class="st0" cx="24.1" cy="24.2" r="4.3"/>
	<circle class="st0" cx="397.3" cy="24.2" r="4.3"/>
	<circle class="st0" cx="583.9" cy="24.2" r="4.3"/>
	<circle class="st0" cx="24.1" cy="90.9" r="4.3"/>
	<circle class="st0" cx="24.1" cy="188.9" r="4.3"/>
	<circle class="st0" cx="24.1" cy="264.3" r="4.3"/>
	<circle class="st0" cx="500.5" cy="264" r="4.3"/>
	<circle class="st0" cx="260.2" cy="265" r="4.3"/>
	<circle class="st0" cx="541.6" cy="145.2" r="4.3"/>
	<circle class="st0" cx="583.9" cy="90.9" r="4.3"/>
	<circle class="st0" cx="500.5" cy="188.9" r="4.3"/>
</g>
<g id="slots">
	<polygon class="st1" points="304.4,203.2 304.4,242.9 344.1,242.9 344.1,203.2 	"/>
	<polygon class="st1" points="81.7,149.2 81.7,188.9 121.4,188.9 121.4,149.2 	"/>
	<polygon class="st1" points="135.7,149.2 135.7,188.9 175.4,188.9 175.4,149.2 	"/>
	<polygon class="st1" points="189.7,149.2 189.7,188.9 229.4,188.9 229.4,149.2 	"/>
	<polygon class="st1" points="243.7,149.2 243.7,188.9 283.4,188.9 283.4,149.2 	"/>
	<polygon class="st1" points="297.7,149.2 297.7,188.9 337.4,188.9 337.4,149.2 	"/>
	<polygon class="st1" points="351.7,149.2 351.7,188.9 391.4,188.9 391.4,149.2 	"/>
	<polygon class="st1" points="405.7,149.2 405.7,188.9 445.4,188.9 445.4,149.2 	"/>
	<polygon class="st1" points="54.7,95.2 54.7,134.9 94.4,134.9 94.4,95.2 	"/>
	<polygon class="st1" points="108.7,95.2 108.7,134.9 148.4,134.9 148.4,95.2 	"/>
	<polygon class="st1" points="162.7,95.2 162.7,134.9 202.4,134.9 202.4,95.2 	"/>
	<polygon class="st1" points="216.7,95.2 216.7,134.9 256.4,134.9 256.4,95.2 	"/>
	<polygon class="st1" points="270.7,95.2 270.7,134.9 310.4,134.9 310.4,95.2 	"/>
	<polygon class="st1" points="324.7,95.2 324.7,134.9 364.4,134.9 364.4,95.2 	"/>
	<polygon class="st1" points="378.7,95.2 378.7,134.9 418.4,134.9 418.4,95.2 	"/>
	<polygon class="st1" points="432.7,95.2 432.7,134.9 472.4,134.9 472.4,95.2 	"/>
	<polygon class="st1" points="486.7,95.2 486.7,134.9 526.4,134.9 526.4,95.2 	"/>
	<polygon class="st1" points="41.2,41.2 41.2,80.9 80.9,80.9 80.9,41.2 	"/>
	<polygon class="st1" points="95.2,41.2 95.2,80.9 134.9,80.9 134.9,41.2 	"/>
	<polygon class="st1" points="149.2,41.2 149.2,80.9 188.9,80.9 188.9,41.2 	"/>
	<polygon class="st1" points="203.2,41.2 203.2,80.9 242.9,80.9 242.9,41.2 	"/>
	<polygon class="st1" points="257.2,41.2 257.2,80.9 296.9,80.9 296.9,41.2 	"/>
	<polygon class="st1" points="311.2,41.2 311.2,80.9 350.9,80.9 350.9,41.2 	"/>
	<polygon class="st1" points="365.2,41.2 365.2,80.9 404.9,80.9 404.9,41.2 	"/>
	<polygon class="st1" points="419.2,41.2 419.2,80.9 458.9,80.9 458.9,41.2 	"/>
	<polygon class="st1" points="473.2,41.2 473.2,80.9 512.9,80.9 512.9,41.2 	"/>
	<polygon class="st1" points="527.2,41.2 527.2,80.9 566.9,80.9 566.9,41.2 	"/>
</g>
<g id="cherry_plate_cutout">
	<polygon class="st0" points="475.6,193.1 456.4,193.1 456.4,194.5 192.1,194.5 192.1,193.1 172.9,193.1 172.9,250.7 192.1,250.7 
		192.1,203.2 456.4,203.2 456.4,250.7 475.6,250.7 	"/>
</g>
</svg>
